<svg xmlns="http://www.w3.org/2000/svg" width="841.89" height="1190.551"><path d="M446.26 542.341a49.134 49.134 0 0 1 49.134 49.134 49.134 49.134 0 1 1-49.134-49.134z" style="fill:#5056ae;fill-rule:evenodd"/><path d="M383.077 547.692c-45.88 77.95 19.401 125.98 61.125 126.75 73.302 1.35 100.33-76.779 67.125-124.876 41.31 38.49 26.121 143.626-64.875 143.626-84.867 0-109.354-100.187-63.375-145.5z" style="fill:#4ab4e8;fill-rule:evenodd"/><path d="M353.727 671.07c-65.391-111.102 27.653-179.559 87.121-180.655 104.476-1.926 142.998 109.431 95.673 177.984 58.878-54.86 37.23-204.708-92.466-204.708-120.96 0-155.86 142.795-90.328 207.38z" style="fill:#2a7ac1;fill-rule:evenodd"/><path d="M339.704 725.526c158.244 93.137 255.747-39.385 257.309-124.087 2.743-148.805-155.863-203.672-253.503-136.266 78.137-83.86 291.566-53.027 291.566 131.7 0 172.283-203.383 221.992-295.372 128.653z" style="fill:#82acde;fill-rule:evenodd"/><path d="M585.612 761.102C382.736 880.51 257.732 710.61 255.73 602.017c-3.517-190.777 199.824-261.119 325.002-174.701C480.558 319.803 206.93 359.332 206.93 596.161c0 220.877 260.748 284.607 378.682 164.941z" style="fill:#5056ae;fill-rule:evenodd"/></svg>